<svg xmlns="http://www.w3.org/2000/svg" width="728" height="682" fill="none" viewBox="0 0 728 682">
  <rect width="355" height="627" y="55" fill="url(#a)" rx="8"/>
  <rect width="354" height="626" x=".5" y="55.5" stroke="url(#b)" stroke-opacity=".15" rx="7.5"/>
  <rect width="355" height="627" fill="url(#c)" rx="8" transform="matrix(-1 0 0 1 728 55)"/>
  <rect width="354" height="626" x="-.5" y=".5" stroke="url(#d)" stroke-opacity=".15" rx="7.5" transform="matrix(-1 0 0 1 727 55)"/>
  <rect width="295" height="78" x="30" y="139" fill="#F44F1D" opacity=".2" rx="5"/>
  <path fill="#FFD6CA" d="M135.218 184v-4.24h2.656c2.016 0 3.568-1.296 3.568-3.376v-.208c0-2.08-1.488-3.376-3.568-3.376h-4.496V184h1.84Zm0-9.536h2.464c1.168 0 1.92.656 1.92 1.728v.16c0 1.088-.768 1.728-1.92 1.728h-2.464v-3.616Zm11.246 9.76c2.144 0 3.088-1.216 3.552-2.112l-1.456-.736c-.32.688-.848 1.312-2.048 1.312-1.264 0-2.208-.848-2.256-2.144h5.984v-.64c0-2.416-1.536-4.032-3.824-4.032-2.336 0-3.936 1.616-3.936 4.08v.192c0 2.464 1.6 4.08 3.984 4.08Zm-2.192-5.008c.16-1.104.928-1.808 2.128-1.808 1.168 0 1.968.704 2.064 1.808h-4.192Zm9.649 4.784v-4.608c0-1.184.736-1.76 1.808-1.76h.992v-1.568h-.944c-.816 0-1.376.304-1.616.96h-.272v-.928h-1.712V184h1.744Zm7.534.224c1.984 0 3.28-.912 3.28-2.528s-1.376-2.128-3.12-2.448l-.512-.08c-.832-.144-1.344-.384-1.344-.992 0-.56.512-.896 1.376-.896.88 0 1.504.352 1.68 1.264l1.632-.48c-.352-1.328-1.536-2.192-3.312-2.192-1.856 0-3.072.864-3.072 2.384 0 1.504 1.312 2.128 2.928 2.432l.528.08c1.008.192 1.504.432 1.504 1.024 0 .608-.544 1.024-1.568 1.024-1.008 0-1.872-.4-2.08-1.664l-1.632.4c.272 1.76 1.68 2.672 3.712 2.672Zm6.039-9.152c.672 0 1.184-.48 1.184-1.168 0-.704-.512-1.168-1.184-1.168-.672 0-1.168.464-1.168 1.168 0 .688.496 1.168 1.168 1.168Zm.88 8.928v-7.904h-1.744V184h1.744Zm5.628.224c1.984 0 3.28-.912 3.28-2.528s-1.376-2.128-3.12-2.448l-.512-.08c-.832-.144-1.344-.384-1.344-.992 0-.56.512-.896 1.376-.896.88 0 1.504.352 1.68 1.264l1.632-.48c-.352-1.328-1.536-2.192-3.312-2.192-1.856 0-3.072.864-3.072 2.384 0 1.504 1.312 2.128 2.928 2.432l.528.08c1.008.192 1.504.432 1.504 1.024 0 .608-.544 1.024-1.568 1.024-1.008 0-1.872-.4-2.08-1.664l-1.632.4c.272 1.76 1.68 2.672 3.712 2.672Zm10.171-.224v-1.472h-1.616c-.304 0-.448-.16-.448-.48v-4.48h2.304v-1.472h-2.304v-2.576h-1.76v2.576h-2.112v1.472h2.112v4.784c0 1.008.64 1.648 1.632 1.648h2.192Zm5.479.224c2.144 0 3.088-1.216 3.552-2.112l-1.456-.736c-.32.688-.848 1.312-2.048 1.312-1.264 0-2.208-.848-2.256-2.144h5.984v-.64c0-2.416-1.536-4.032-3.824-4.032-2.336 0-3.936 1.616-3.936 4.08v.192c0 2.464 1.6 4.08 3.984 4.08Zm-2.192-5.008c.16-1.104.928-1.808 2.128-1.808 1.168 0 1.968.704 2.064 1.808h-4.192Zm9.648 4.784v-4c0-1.632.848-2.544 2.16-2.544 1.184 0 1.872.624 1.872 1.936V184h1.744v-4.736c0-2.016-1.28-3.296-3.088-3.296-1.488 0-2.16.656-2.448 1.28h-.272v-1.152h-1.712V184h1.744Zm11.78.224c2.256 0 3.536-1.36 3.92-3.024l-1.696-.4c-.192 1.088-.848 1.856-2.192 1.856-1.328 0-2.352-.912-2.352-2.528v-.16c0-1.616 1.024-2.528 2.352-2.528 1.344 0 2 .816 2.128 1.84l1.712-.352c-.32-1.696-1.616-3.056-3.872-3.056-2.304 0-4.064 1.504-4.064 4.08v.208c0 2.56 1.76 4.064 4.064 4.064Zm9.357 0c2.144 0 3.088-1.216 3.552-2.112l-1.456-.736c-.32.688-.848 1.312-2.048 1.312-1.264 0-2.208-.848-2.256-2.144h5.984v-.64c0-2.416-1.536-4.032-3.824-4.032-2.336 0-3.936 1.616-3.936 4.08v.192c0 2.464 1.6 4.08 3.984 4.08Zm-2.192-5.008c.16-1.104.928-1.808 2.128-1.808 1.168 0 1.968.704 2.064 1.808h-4.192Z" opacity=".9"/>
  <rect width="294" height="77" x="30.5" y="139.5" stroke="#F44F1D" rx="4.5"/>
  <rect width="295" height="78" x="405" y="139" fill="#6B7280" opacity=".2" rx="5"/>
  <path fill="#E4EAF7" d="M510.923 184.224c2.672 0 4.304-1.52 4.304-4.096V172.8h-1.84v7.376c0 1.536-.88 2.4-2.464 2.4s-2.448-.864-2.448-2.4V172.8h-1.84v7.328c0 2.576 1.632 4.096 4.288 4.096Zm8.334-.224v-11.2h-1.84V184h1.84Zm8.188 0v-4.784h4.704v-1.664h-4.704v-3.088h5.104V172.8h-6.944V184h1.84Zm10.324.224c2.144 0 3.088-1.216 3.552-2.112l-1.456-.736c-.32.688-.848 1.312-2.048 1.312-1.264 0-2.208-.848-2.256-2.144h5.984v-.64c0-2.416-1.536-4.032-3.824-4.032-2.336 0-3.936 1.616-3.936 4.08v.192c0 2.464 1.6 4.08 3.984 4.08Zm-2.192-5.008c.16-1.104.928-1.808 2.128-1.808 1.168 0 1.968.704 2.064 1.808h-4.192Zm11.504 5.008c2.144 0 3.088-1.216 3.552-2.112l-1.456-.736c-.32.688-.848 1.312-2.048 1.312-1.264 0-2.208-.848-2.256-2.144h5.984v-.64c0-2.416-1.536-4.032-3.824-4.032-2.336 0-3.936 1.616-3.936 4.08v.192c0 2.464 1.6 4.08 3.984 4.08Zm-2.192-5.008c.16-1.104.928-1.808 2.128-1.808 1.168 0 1.968.704 2.064 1.808h-4.192Zm11.137 5.008c1.504 0 2.24-.64 2.64-1.296h.256V184h1.728v-11.2h-1.76v4.32h-.256c-.368-.608-1.104-1.248-2.608-1.248-1.968 0-3.616 1.504-3.616 4.064v.24c0 2.56 1.664 4.048 3.616 4.048Zm.512-1.536c-1.36 0-2.368-.912-2.368-2.56v-.16c0-1.648.992-2.56 2.368-2.56s2.384.912 2.384 2.56v.16c0 1.648-1.024 2.56-2.384 2.56Zm11.098 1.536c1.952 0 3.632-1.488 3.632-4.048v-.24c0-2.56-1.664-4.064-3.632-4.064-1.504 0-2.24.64-2.592 1.248h-.272v-4.32h-1.744V184h1.712v-1.072h.272c.384.656 1.12 1.296 2.624 1.296Zm-.512-1.536c-1.36 0-2.368-.912-2.368-2.56v-.16c0-1.648.992-2.56 2.368-2.56s2.384.912 2.384 2.56v.16c0 1.648-1.024 2.56-2.384 2.56Zm8.571 1.536c1.648 0 2.208-.848 2.416-1.328h.272v.032c0 .656.528 1.072 1.28 1.072h1.264v-1.456h-.672c-.288 0-.448-.16-.448-.48v-3.168c0-1.936-1.264-3.024-3.312-3.024-2.032 0-3.072 1.056-3.456 2.304l1.632.528c.176-.816.704-1.392 1.808-1.392s1.632.608 1.632 1.472v.48h-2.352c-1.744 0-3.024.832-3.024 2.448s1.28 2.512 2.96 2.512Zm.288-1.44c-.944 0-1.488-.448-1.488-1.12 0-.688.544-1.056 1.376-1.056h2.24v.16c0 1.248-.88 2.016-2.128 2.016Zm10.022 1.44c2.256 0 3.536-1.36 3.92-3.024l-1.696-.4c-.192 1.088-.848 1.856-2.192 1.856-1.328 0-2.352-.912-2.352-2.528v-.16c0-1.616 1.024-2.528 2.352-2.528 1.344 0 2 .816 2.128 1.84l1.712-.352c-.32-1.696-1.616-3.056-3.872-3.056-2.304 0-4.064 1.504-4.064 4.08v.208c0 2.56 1.76 4.064 4.064 4.064Zm7.502-.224v-3.248h.272l3.12 3.248h2.288l-4.032-4.064 3.904-3.84h-2.32l-2.96 3.04h-.272V172.8h-1.744V184h1.744Z" opacity=".9"/>
  <rect width="294" height="77" x="405.5" y="139.5" stroke="#6B7280" rx="4.5"/>
  <rect width="295" height="78" x="30" y="246" fill="#A25AFF" opacity=".2" rx="5"/>
  <path fill="#E2CCFF" d="M149.812 291v-4.352h3.28c.656 0 .928.352.928.912V291h1.84v-3.696c0-.928-.528-1.456-1.344-1.504v-.256c.944-.368 1.696-1.184 1.696-2.576v-.176c0-1.84-1.408-2.992-3.488-2.992h-4.752V291h1.84Zm0-9.536h2.72c1.184 0 1.84.656 1.84 1.68v.144c0 1.04-.688 1.68-1.84 1.68h-2.72v-3.504Zm12.045 9.76c2.368 0 4.112-1.536 4.112-4.048v-.24c0-2.528-1.744-4.064-4.112-4.064-2.368 0-4.096 1.536-4.096 4.064v.24c0 2.512 1.728 4.048 4.096 4.048Zm0-1.568c-1.376 0-2.352-.928-2.352-2.528v-.16c0-1.584.96-2.528 2.352-2.528s2.352.944 2.352 2.528v.16c0 1.6-.976 2.528-2.352 2.528Zm9.124 1.472c1.488 0 2.16-.656 2.448-1.264h.272V291h1.712v-7.904h-1.744v4c0 1.632-.848 2.544-2.16 2.544-1.184 0-1.872-.608-1.872-1.936v-4.608h-1.744v4.736c0 2.016 1.28 3.296 3.088 3.296Zm12.004-.128v-1.472h-1.616c-.304 0-.448-.16-.448-.48v-4.48h2.304v-1.472h-2.304v-2.576h-1.76v2.576h-2.112v1.472h2.112v4.784c0 1.008.64 1.648 1.632 1.648h2.192Zm3.024-8.928c.672 0 1.184-.48 1.184-1.168 0-.704-.512-1.168-1.184-1.168-.672 0-1.168.464-1.168 1.168 0 .688.496 1.168 1.168 1.168Zm.88 8.928v-7.904h-1.744V291h1.744Zm4.141 0v-4c0-1.632.848-2.544 2.16-2.544 1.184 0 1.872.624 1.872 1.936V291h1.744v-4.736c0-2.016-1.28-3.296-3.088-3.296-1.488 0-2.16.656-2.448 1.28h-.272v-1.152h-1.712V291h1.744Zm7.716-3.92c0 2.48 1.648 3.968 3.648 3.968 1.52 0 2.224-.656 2.576-1.248h.256v2.384c0 .32-.16.48-.464.48h-4.736v1.536h5.312c1.008 0 1.632-.64 1.632-1.648v-9.456h-1.712v1.088h-.256c-.384-.624-1.104-1.312-2.608-1.312-2 0-3.648 1.488-3.648 3.968v.24Zm4.128 2.432c-1.36 0-2.368-.912-2.368-2.48v-.144c0-1.568.992-2.48 2.368-2.48s2.384.912 2.384 2.48v.144c0 1.568-1.024 2.48-2.384 2.48Z" opacity=".9"/>
  <rect width="294" height="77" x="30.5" y="246.5" stroke="#A25AFF" rx="4.5"/>
  <rect width="295" height="78" x="30" y="353" fill="#5552FF" opacity=".2" rx="5"/>
  <path fill="#DEDDFF" d="M129.639 398c2.992 0 4.624-1.504 4.624-4.544v-2.112c0-3.04-1.632-4.544-4.624-4.544h-4.512v1.616h1.504v7.952h-1.504V398h4.512Zm-1.168-9.52h1.2c1.856 0 2.752.96 2.752 2.816v2.208c0 1.856-.896 2.816-2.752 2.816h-1.2v-7.84Zm10.177 9.744c1.648 0 2.208-.848 2.416-1.328h.272v.032c0 .656.528 1.072 1.28 1.072h1.264v-1.456h-.672c-.288 0-.448-.16-.448-.48v-3.168c0-1.936-1.264-3.024-3.312-3.024-2.032 0-3.072 1.056-3.456 2.304l1.632.528c.176-.816.704-1.392 1.808-1.392s1.632.608 1.632 1.472v.48h-2.352c-1.744 0-3.024.832-3.024 2.448s1.28 2.512 2.96 2.512Zm.288-1.44c-.944 0-1.488-.448-1.488-1.12 0-.688.544-1.056 1.376-1.056h2.24v.16c0 1.248-.88 2.016-2.128 2.016Zm11.12 1.216v-1.472h-1.616c-.304 0-.448-.16-.448-.48v-4.48h2.304v-1.472h-2.304v-2.576h-1.76v2.576h-2.112v1.472h2.112v4.784c0 1.008.64 1.648 1.632 1.648h2.192Zm4.576.224c1.648 0 2.208-.848 2.416-1.328h.272v.032c0 .656.528 1.072 1.28 1.072h1.264v-1.456h-.672c-.288 0-.448-.16-.448-.48v-3.168c0-1.936-1.264-3.024-3.312-3.024-2.032 0-3.072 1.056-3.456 2.304l1.632.528c.176-.816.704-1.392 1.808-1.392s1.632.608 1.632 1.472v.48h-2.352c-1.744 0-3.024.832-3.024 2.448s1.28 2.512 2.96 2.512Zm.288-1.44c-.944 0-1.488-.448-1.488-1.12 0-.688.544-1.056 1.376-1.056h2.24v.16c0 1.248-.88 2.016-2.128 2.016ZM168.649 398v-6.432h2.224v-1.472h-2.224v-1.36c0-.32.16-.48.464-.48h1.456V386.8h-2.033c-1.007 0-1.631.64-1.631 1.648v1.648h-2.16v1.472h2.16V398h1.744Zm7.182.224c2.144 0 3.088-1.216 3.552-2.112l-1.456-.736c-.32.688-.848 1.312-2.048 1.312-1.264 0-2.208-.848-2.256-2.144h5.984v-.64c0-2.416-1.536-4.032-3.824-4.032-2.336 0-3.936 1.616-3.936 4.08v.192c0 2.464 1.6 4.08 3.984 4.08Zm-2.192-5.008c.16-1.104.928-1.808 2.128-1.808 1.168 0 1.968.704 2.064 1.808h-4.192ZM186.446 398v-1.472h-1.616c-.304 0-.448-.16-.448-.48v-4.48h2.304v-1.472h-2.304v-2.576h-1.76v2.576h-2.112v1.472h2.112v4.784c0 1.008.64 1.648 1.632 1.648h2.192Zm5.559.224c2.256 0 3.536-1.36 3.92-3.024l-1.696-.4c-.192 1.088-.848 1.856-2.192 1.856-1.328 0-2.352-.912-2.352-2.528v-.16c0-1.616 1.024-2.528 2.352-2.528 1.344 0 2 .816 2.128 1.84l1.712-.352c-.32-1.696-1.616-3.056-3.872-3.056-2.304 0-4.064 1.504-4.064 4.08v.208c0 2.56 1.76 4.064 4.064 4.064Zm7.502-.224v-4c0-1.632.848-2.544 2.16-2.544 1.184 0 1.872.624 1.872 1.936V398h1.744v-4.736c0-2.016-1.28-3.296-3.088-3.296-1.472 0-2.128.64-2.416 1.2h-.272V386.8h-1.744V398h1.744Zm8.963-8.928c.672 0 1.184-.48 1.184-1.168 0-.704-.512-1.168-1.184-1.168-.672 0-1.168.464-1.168 1.168 0 .688.496 1.168 1.168 1.168Zm.88 8.928v-7.904h-1.744V398h1.744Zm4.141 0v-4c0-1.632.848-2.544 2.16-2.544 1.184 0 1.872.624 1.872 1.936V398h1.744v-4.736c0-2.016-1.28-3.296-3.088-3.296-1.488 0-2.16.656-2.448 1.28h-.272v-1.152h-1.712V398h1.744Zm7.716-3.92c0 2.48 1.648 3.968 3.648 3.968 1.52 0 2.224-.656 2.576-1.248h.256v2.384c0 .32-.16.48-.464.48h-4.736v1.536h5.312c1.008 0 1.632-.64 1.632-1.648v-9.456h-1.712v1.088h-.256c-.384-.624-1.104-1.312-2.608-1.312-2 0-3.648 1.488-3.648 3.968v.24Zm4.128 2.432c-1.36 0-2.368-.912-2.368-2.48v-.144c0-1.568.992-2.48 2.368-2.48s2.384.912 2.384 2.48v.144c0 1.568-1.024 2.48-2.384 2.48Z" opacity=".9"/>
  <rect width="294" height="77" x="30.5" y="353.5" stroke="#5552FF" rx="4.5"/>
  <rect width="295" height="78" x="30" y="460" fill="#6B9BF8" opacity=".2" rx="5"/>
  <path fill="#E6EEFF" d="M127.522 505c2.992 0 4.624-1.504 4.624-4.544v-2.112c0-3.04-1.632-4.544-4.624-4.544h-4.512v1.616h1.504v7.952h-1.504V505h4.512Zm-1.168-9.52h1.2c1.856 0 2.752.96 2.752 2.816v2.208c0 1.856-.896 2.816-2.752 2.816h-1.2v-7.84Zm10.176 9.744c1.648 0 2.208-.848 2.416-1.328h.272v.032c0 .656.528 1.072 1.28 1.072h1.264v-1.456h-.672c-.288 0-.448-.16-.448-.48v-3.168c0-1.936-1.264-3.024-3.312-3.024-2.032 0-3.072 1.056-3.456 2.304l1.632.528c.176-.816.704-1.392 1.808-1.392s1.632.608 1.632 1.472v.48h-2.352c-1.744 0-3.024.832-3.024 2.448s1.28 2.512 2.96 2.512Zm.288-1.44c-.944 0-1.488-.448-1.488-1.12 0-.688.544-1.056 1.376-1.056h2.24v.16c0 1.248-.88 2.016-2.128 2.016Zm11.12 1.216v-1.472h-1.616c-.304 0-.448-.16-.448-.48v-4.48h2.304v-1.472h-2.304v-2.576h-1.76v2.576h-2.112v1.472h2.112v4.784c0 1.008.64 1.648 1.632 1.648h2.192Zm4.577.224c1.648 0 2.208-.848 2.416-1.328h.272v.032c0 .656.528 1.072 1.28 1.072h1.264v-1.456h-.672c-.288 0-.448-.16-.448-.48v-3.168c0-1.936-1.264-3.024-3.312-3.024-2.032 0-3.072 1.056-3.456 2.304l1.632.528c.176-.816.704-1.392 1.808-1.392s1.632.608 1.632 1.472v.48h-2.352c-1.744 0-3.024.832-3.024 2.448s1.28 2.512 2.96 2.512Zm.288-1.44c-.944 0-1.488-.448-1.488-1.12 0-.688.544-1.056 1.376-1.056h2.24v.16c0 1.248-.88 2.016-2.128 2.016ZM165.139 505v-4.704c0-1.2.624-1.856 1.632-1.856.896 0 1.44.528 1.44 1.44V505h1.744v-4.704c0-1.2.624-1.856 1.632-1.856.896 0 1.44.528 1.44 1.44V505h1.744v-5.248c0-1.824-1.152-2.784-2.656-2.784-1.264 0-1.888.544-2.24 1.248h-.272c-.368-.72-1.04-1.248-2.192-1.248-1.12 0-1.76.496-2.032 1.04h-.272v-.912h-1.712V505h1.744Zm14.842.128c1.488 0 2.16-.656 2.448-1.264h.272V505h1.712v-7.904h-1.744v4c0 1.632-.848 2.544-2.16 2.544-1.184 0-1.872-.608-1.872-1.936v-4.608h-1.744v4.736c0 2.016 1.28 3.296 3.088 3.296Zm12.004-.128v-1.472h-1.616c-.304 0-.448-.16-.448-.48v-4.48h2.304v-1.472h-2.304v-2.576h-1.76v2.576h-2.112v1.472h2.112v4.784c0 1.008.64 1.648 1.632 1.648h2.192Zm4.577.224c1.648 0 2.208-.848 2.416-1.328h.272v.032c0 .656.528 1.072 1.28 1.072h1.264v-1.456h-.672c-.288 0-.448-.16-.448-.48v-3.168c0-1.936-1.264-3.024-3.312-3.024-2.032 0-3.072 1.056-3.456 2.304l1.632.528c.176-.816.704-1.392 1.808-1.392s1.632.608 1.632 1.472v.48h-2.352c-1.744 0-3.024.832-3.024 2.448s1.28 2.512 2.96 2.512Zm.288-1.44c-.944 0-1.488-.448-1.488-1.12 0-.688.544-1.056 1.376-1.056h2.24v.16c0 1.248-.88 2.016-2.128 2.016ZM207.97 505v-1.472h-1.616c-.304 0-.448-.16-.448-.48v-4.48h2.304v-1.472h-2.304v-2.576h-1.76v2.576h-2.112v1.472h2.112v4.784c0 1.008.64 1.648 1.632 1.648h2.192Zm3.024-8.928c.672 0 1.184-.48 1.184-1.168 0-.704-.512-1.168-1.184-1.168-.672 0-1.168.464-1.168 1.168 0 .688.496 1.168 1.168 1.168Zm.88 8.928v-7.904h-1.744V505h1.744Zm6.108.224c2.368 0 4.112-1.536 4.112-4.048v-.24c0-2.528-1.744-4.064-4.112-4.064-2.368 0-4.096 1.536-4.096 4.064v.24c0 2.512 1.728 4.048 4.096 4.048Zm0-1.568c-1.376 0-2.352-.928-2.352-2.528v-.16c0-1.584.96-2.528 2.352-2.528s2.352.944 2.352 2.528v.16c0 1.6-.976 2.528-2.352 2.528Zm7.86 1.344v-4c0-1.632.848-2.544 2.16-2.544 1.184 0 1.872.624 1.872 1.936V505h1.744v-4.736c0-2.016-1.28-3.296-3.088-3.296-1.488 0-2.16.656-2.448 1.28h-.272v-1.152h-1.712V505h1.744Z" opacity=".9"/>
  <rect width="294" height="77" x="30.5" y="460.5" stroke="#6B9BF8" rx="4.5"/>
  <rect width="295" height="78" x="30" y="568" fill="#FDC900" opacity=".2" rx="5"/>
  <path fill="#FFFCEF" d="M140.851 613v-4.352h3.28c.656 0 .928.352.928.912V613h1.84v-3.696c0-.928-.528-1.456-1.344-1.504v-.256c.944-.368 1.696-1.184 1.696-2.576v-.176c0-1.84-1.408-2.992-3.488-2.992h-4.752V613h1.84Zm0-9.536h2.72c1.184 0 1.84.656 1.84 1.68v.144c0 1.04-.688 1.68-1.84 1.68h-2.72v-3.504Zm11.933 9.76c2.144 0 3.088-1.216 3.552-2.112l-1.456-.736c-.32.688-.848 1.312-2.048 1.312-1.264 0-2.208-.848-2.256-2.144h5.984v-.64c0-2.416-1.536-4.032-3.824-4.032-2.336 0-3.936 1.616-3.936 4.08v.192c0 2.464 1.6 4.08 3.984 4.08Zm-2.192-5.008c.16-1.104.928-1.808 2.128-1.808 1.168 0 1.968.704 2.064 1.808h-4.192Zm9.649 4.784v-4c0-1.632.848-2.544 2.16-2.544 1.184 0 1.872.624 1.872 1.936V613h1.744v-4.736c0-2.016-1.28-3.296-3.088-3.296-1.488 0-2.16.656-2.448 1.28h-.272v-1.152h-1.712V613h1.744Zm11.332.224c1.504 0 2.24-.64 2.64-1.296h.256V613h1.728v-11.2h-1.76v4.32h-.256c-.368-.608-1.104-1.248-2.608-1.248-1.968 0-3.616 1.504-3.616 4.064v.24c0 2.56 1.664 4.048 3.616 4.048Zm.512-1.536c-1.36 0-2.368-.912-2.368-2.56v-.16c0-1.648.992-2.56 2.368-2.56s2.384.912 2.384 2.56v.16c0 1.648-1.024 2.56-2.384 2.56Zm10.09 1.536c2.144 0 3.088-1.216 3.552-2.112l-1.456-.736c-.32.688-.848 1.312-2.048 1.312-1.264 0-2.208-.848-2.256-2.144h5.984v-.64c0-2.416-1.536-4.032-3.824-4.032-2.336 0-3.936 1.616-3.936 4.08v.192c0 2.464 1.6 4.08 3.984 4.08Zm-2.192-5.008c.16-1.104.928-1.808 2.128-1.808 1.168 0 1.968.704 2.064 1.808h-4.192Zm9.649 4.784v-4.608c0-1.184.736-1.76 1.808-1.76h.992v-1.568h-.944c-.816 0-1.376.304-1.616.96h-.272v-.928h-1.712V613h1.744Zm5.338-8.928c.672 0 1.184-.48 1.184-1.168 0-.704-.512-1.168-1.184-1.168-.672 0-1.168.464-1.168 1.168 0 .688.496 1.168 1.168 1.168Zm.88 8.928v-7.904h-1.744V613h1.744Zm4.141 0v-4c0-1.632.848-2.544 2.16-2.544 1.184 0 1.872.624 1.872 1.936V613h1.744v-4.736c0-2.016-1.28-3.296-3.088-3.296-1.488 0-2.16.656-2.448 1.28h-.272v-1.152h-1.712V613h1.744Zm7.716-3.92c0 2.48 1.648 3.968 3.648 3.968 1.52 0 2.224-.656 2.576-1.248h.256v2.384c0 .32-.16.48-.464.48h-4.736v1.536h5.312c1.008 0 1.632-.64 1.632-1.648v-9.456h-1.712v1.088h-.256c-.384-.624-1.104-1.312-2.608-1.312-2 0-3.648 1.488-3.648 3.968v.24Zm4.128 2.432c-1.36 0-2.368-.912-2.368-2.48v-.144c0-1.568.992-2.48 2.368-2.48s2.384.912 2.384 2.48v.144c0 1.568-1.024 2.48-2.384 2.48Z" opacity=".9"/>
  <rect width="294" height="77" x="30.5" y="568.5" stroke="#FDC900" rx="4.5"/>
  <path fill="#fff" d="M242.355 97.156c1.872 0 3.276-1.027 3.276-2.639 0-3.51-5.161-2.171-5.161-4.225 0-.832.702-1.352 1.729-1.352 1.066 0 1.924.637 1.95 1.664h1.378c-.039-1.768-1.469-2.834-3.328-2.834-1.911 0-3.172 1.079-3.172 2.561 0 3.276 5.161 2.002 5.161 4.199 0 .923-.741 1.456-1.846 1.456-1.313 0-2.093-.793-2.093-2.223h-1.365c0 2.158 1.365 3.393 3.471 3.393Zm5.829-.156h6.565v-1.17h-5.187v-2.951h3.536v-1.17h-3.536v-2.613h5.135v-1.17h-6.513V97Zm9.131 0h1.378v-3.796h1.092c1.703.988 2.561 2.379 2.743 3.796h1.404c-.13-1.417-.819-2.821-2.353-3.913 1.521-.351 2.418-1.443 2.418-2.587 0-1.612-1.313-2.574-3.107-2.574h-3.575V97Zm3.575-7.904c.923 0 1.664.546 1.664 1.404 0 .936-.819 1.534-1.95 1.534h-1.911v-2.938h2.197ZM268.552 97h1.989l2.834-9.074h-1.404l-1.924 5.967-.481 1.95-.494-1.963-1.911-5.954h-1.443L268.552 97Zm6.947 0h6.565v-1.17h-5.187v-2.951h3.536v-1.17h-3.536v-2.613h5.135v-1.17h-6.513V97Zm9.131 0h1.378v-3.796h1.092c1.703.988 2.561 2.379 2.743 3.796h1.404c-.13-1.417-.819-2.821-2.353-3.913 1.521-.351 2.418-1.443 2.418-2.587 0-1.612-1.313-2.574-3.107-2.574h-3.575V97Zm3.575-7.904c.923 0 1.664.546 1.664 1.404 0 .936-.819 1.534-1.95 1.534h-1.911v-2.938h2.197Z"/>
  <path stroke="#5A5A61" stroke-linecap="round" stroke-linejoin="round" stroke-width="2" d="M304.548 93h17.836m-17.836 0c-.676 0-1.324-.21-1.802-.586-.478-.375-.746-.884-.746-1.414v-4c0-.53.268-1.04.746-1.414.478-.375 1.126-.586 1.802-.586h17.836c.675 0 1.323.21 1.801.586.478.375.747.884.747 1.414v4c0 .53-.269 1.04-.747 1.414-.478.375-1.126.586-1.801.586m-17.836 0c-.676 0-1.324.21-1.802.586-.478.375-.746.884-.746 1.414v4c0 .53.268 1.039.746 1.414s1.126.586 1.802.586h17.836c.675 0 1.323-.211 1.801-.586s.747-.884.747-1.414v-4c0-.53-.269-1.04-.747-1.414-.478-.375-1.126-.586-1.801-.586m-2.548-4h.012m-.012 8h.012"/>
  <path fill="#fff" d="M429.381 97.156c2.106 0 3.471-1.261 3.653-3.198h-1.521c-.104 1.235-.936 2.028-2.132 2.028-1.417 0-2.457-1.326-2.457-3.523 0-2.171 1.014-3.523 2.496-3.523 1.144 0 1.911.754 2.054 1.924h1.508c-.169-1.924-1.651-3.094-3.549-3.094-2.366 0-3.952 1.82-3.952 4.68 0 2.756 1.495 4.706 3.9 4.706Zm6.154-.156h6.136v-1.17h-4.758v-7.904h-1.378V97Zm8.026-1.17V97h5.915v-1.17h-2.262v-6.734h2.262v-1.17h-5.915v1.17h2.275v6.734h-2.275Zm8.923 1.17h6.565v-1.17h-5.187v-2.951h3.536v-1.17h-3.536v-2.613h5.135v-1.17h-6.513V97Zm8.897 0h1.326v-4.485l-.117-2.717L466.399 97h1.703v-9.074h-1.326v4.472l.104 2.808-3.783-7.28h-1.716V97Zm11.77 0h1.378v-7.904h2.925v-1.17h-7.228v1.17h2.925V97Z"/>
  <path stroke="#5A5A61" stroke-linecap="round" stroke-linejoin="round" stroke-width="2" d="M411 91.778A3.889 3.889 0 1 0 411 84a3.889 3.889 0 0 0 0 7.778Zm0 3.111c-4.726 0-7 2.947-7 4.666v1.556h14v-1.556c0-1.71-2.274-4.666-7-4.666Z"/>
  <path fill="#fff" d="M207.934 20h2.952l.36-9.768.096-4.032.72 4.032L213.958 20h2.448l1.92-9.768.744-4.008.072 4.008.384 9.768h2.976l-1.224-16.752h-3.864l-1.632 8.928-.504 3.648-.504-3.648-1.728-8.928h-3.888L207.934 20Zm19.474-13.248h-2.856V15.2c0 3.048 1.872 5.088 4.896 5.088 1.68 0 3.264-.744 4.392-2.256l.072 1.968h2.76V6.752h-2.88v7.944c-.96 2.208-2.256 3.168-3.816 3.168-1.536 0-2.568-1.128-2.568-2.832v-8.28ZM240.305 20h12.288v-2.328h-4.728V2.312h-5.832V4.64h2.952v13.032h-4.68V20Zm22.809 0h4.848v-2.328h-3.768c-1.872 0-2.256-.744-2.256-1.968V9.08h3.84V6.752h-3.84v-3.84l-2.88 1.44v2.4h-2.952V9.08h2.952v6.624c0 2.592 1.488 4.296 4.056 4.296Zm13.018-15.336h3.144V1.736h-3.144v2.928ZM271.62 20h12.024v-2.328h-4.488V6.752h-5.832V9.08h2.976v8.592h-4.68V20Zm17.841-6.168h7.56v-2.496h-7.56v2.496ZM302.839 20h3.024v-5.832h3.336c3.84 0 6.36-2.184 6.36-5.52 0-3.288-2.472-5.4-6.216-5.4h-6.504V20Zm6.504-14.232c1.848 0 3.072 1.152 3.072 2.88 0 1.8-1.296 3-3.24 3h-3.312v-5.88h3.48Zm13.689 14.52c2.04 0 3.6-.72 4.536-2.088l.072 1.8h2.736v-8.592c0-3.144-2.304-4.944-5.928-4.944-3.552 0-6 1.704-6.216 4.512h2.784c.144-1.512 1.44-2.424 3.336-2.424 1.968 0 3.168 1.032 3.168 2.688v.816h-2.904c-3.744 0-5.976 1.584-5.976 4.32 0 2.352 1.776 3.912 4.392 3.912Zm-1.584-4.056c0-1.344 1.152-2.088 3.072-2.088l3-.024v1.536c-.888 1.464-2.208 2.328-3.864 2.328-1.368 0-2.208-.696-2.208-1.752Zm22.041-7.752c-.84-1.2-2.28-1.992-3.984-1.992-3.408 0-5.952 2.424-5.952 6.432 0 3.648 2.4 6.408 5.784 6.408 1.752 0 3.216-.744 4.104-1.992v1.44c0 2.184-1.176 3.432-3.504 3.432-1.992 0-2.976-.648-3.144-1.92h-3c.168 2.856 2.4 4.272 6 4.272 4.368 0 6.504-2.136 6.504-6.12V6.752h-2.736l-.072 1.728Zm-3.48 8.64c-2.136 0-3.6-1.824-3.6-4.248 0-2.4 1.464-4.176 3.6-4.176 1.584 0 2.904 1.032 3.432 2.64v3.12c-.528 1.632-1.848 2.664-3.432 2.664Zm15.826 3.168c3.576 0 6-1.824 6.408-4.824h-2.88c-.288 1.512-1.632 2.472-3.528 2.472-2.496 0-3.864-1.848-3.864-4.464v-.096h10.224c.288-4.272-1.848-6.912-6.24-6.912-4.296 0-6.84 2.568-6.84 6.888 0 4.344 2.544 6.936 6.72 6.936Zm.12-11.52c1.848 0 3.192 1.008 3.312 2.544l-6.984-.024c.528-1.632 1.776-2.52 3.672-2.52Zm28.746-5.52L379.829 20h3.024l1.104-3.888h5.832L390.893 20h3.096l-4.872-16.752h-4.416Zm1.176 6.216 1.032-3.96.984 3.936 1.176 4.152h-4.392l1.2-4.128Zm17.53-3c-1.776 0-3.264.744-4.2 1.92l-.072-1.632h-2.736v17.52h2.856v-5.88c.936 1.176 2.424 1.896 4.152 1.896 3.504 0 5.952-2.952 5.952-6.912 0-3.984-2.448-6.912-5.952-6.912Zm-.672 11.448c-1.584 0-2.904-.984-3.48-2.544V11.36c.576-1.56 1.896-2.52 3.48-2.52 2.232 0 3.744 1.896 3.744 4.536 0 2.616-1.512 4.536-3.744 4.536Zm16.281-11.448c-1.776 0-3.264.744-4.2 1.92l-.072-1.632h-2.736v17.52h2.856v-5.88c.936 1.176 2.424 1.896 4.152 1.896 3.504 0 5.952-2.952 5.952-6.912 0-3.984-2.448-6.912-5.952-6.912Zm-.672 11.448c-1.584 0-2.904-.984-3.48-2.544V11.36c.576-1.56 1.896-2.52 3.48-2.52 2.232 0 3.744 1.896 3.744 4.536 0 2.616-1.512 4.536-3.744 4.536Zm31.291 4.416h2.904c-2.064-3.288-2.784-6.432-2.784-9.528 0-3.144.72-6.24 2.784-9.552h-2.904c-2.016 3.408-2.76 6.312-2.76 9.552 0 3.216.744 6.12 2.76 9.528ZM457.684 20h2.952l.36-9.768.096-4.032.72 4.032L463.708 20h2.448l1.92-9.768.744-4.008.072 4.008.384 9.768h2.976l-1.224-16.752h-3.864l-1.632 8.928-.504 3.648-.504-3.648-1.728-8.928h-3.888L457.684 20Zm16.858 0h3.024v-5.832h3.336c3.84 0 6.36-2.184 6.36-5.52 0-3.288-2.472-5.4-6.216-5.4h-6.504V20Zm6.504-14.232c1.848 0 3.072 1.152 3.072 2.88 0 1.8-1.296 3-3.24 3h-3.312v-5.88h3.48Zm12.921-2.52L489.095 20h3.024l1.104-3.888h5.832L500.159 20h3.096l-4.872-16.752h-4.416Zm1.176 6.216 1.032-3.96.984 3.936 1.176 4.152h-4.392l1.2-4.128Zm16.353 12.864c2.016-3.408 2.76-6.312 2.76-9.528 0-3.24-.744-6.144-2.76-9.552h-2.904c2.064 3.312 2.784 6.408 2.784 9.552 0 3.096-.72 6.24-2.784 9.528h2.904Z" opacity=".9"/>
  <defs>
    <radialGradient id="b" cx="0" cy="0" r="1" gradientTransform="matrix(0 309.084 -175 0 355 372.916)" gradientUnits="userSpaceOnUse">
      <stop stop-color="#fff"/>
      <stop offset="1" stop-color="#fff" stop-opacity="0"/>
    </radialGradient>
    <radialGradient id="d" cx="0" cy="0" r="1" gradientTransform="matrix(0 309.084 -175 0 355 317.916)" gradientUnits="userSpaceOnUse">
      <stop stop-color="#fff"/>
      <stop offset="1" stop-color="#fff" stop-opacity="0"/>
    </radialGradient>
    <linearGradient id="a" x1="355" x2="0" y1="368.5" y2="368.5" gradientUnits="userSpaceOnUse">
      <stop stop-color="#2B2B2F"/>
      <stop offset="1" stop-color="#18181B"/>
    </linearGradient>
    <linearGradient id="c" x1="355" x2="0" y1="313.5" y2="313.5" gradientUnits="userSpaceOnUse">
      <stop stop-color="#2B2B2F"/>
      <stop offset="1" stop-color="#18181B"/>
    </linearGradient>
  </defs>
</svg>
